<svg width="32" height="32" viewBox="0 0 32 32" fill="none" xmlns="http://www.w3.org/2000/svg">
<path fill-rule="evenodd" clip-rule="evenodd" d="M5.46725 5.55005C5.46725 7.3501 6.93698 8.82007 8.73678 8.82007C10.5376 8.82007 12.0073 7.3501 12.0073 5.55005C12.0073 3.75 10.5376 2.28003 8.73678 2.28003C6.93698 2.28003 5.46725 3.75 5.46725 5.55005ZM7.46725 5.55005C7.46725 4.8501 8.03756 4.28003 8.73678 4.28003C9.43698 4.28003 10.0073 4.8501 10.0073 5.55005C10.0073 6.25 9.43698 6.82007 8.73678 6.82007C8.03756 6.82007 7.46725 6.25 7.46725 5.55005Z" fill="#3291CF"/>
<path fill-rule="evenodd" clip-rule="evenodd" d="M14.5151 22.9801H4.73776C4.44772 22.9801 4.17721 22.86 3.98776 22.65C3.79733 22.4401 3.70748 22.1501 3.73776 21.8701L4.79733 12.7001C4.90768 11.16 6.23776 9.93005 7.81783 9.93005H10.9575L17.5473 10.8301C18.7778 11.0001 19.6674 12.0601 19.6079 13.3C19.5473 14.5701 18.4975 15.5701 17.228 15.5701H13.188L14.0571 20.9801H16.0385C16.0922 20.9758 16.146 20.9758 16.1987 20.9801H26.268V5.33008H13.7573C13.2075 5.33008 12.7573 4.88013 12.7573 4.33008C12.7573 3.78003 13.2075 3.33008 13.7573 3.33008H27.268C27.8178 3.33008 28.268 3.78003 28.268 4.33008V21.9801C28.268 22.5302 27.8178 22.9801 27.268 22.9801H17.4731L19.1274 28.41C19.2876 28.9401 18.9878 29.5 18.4672 29.66C18.3676 29.6901 18.268 29.7001 18.1772 29.7001V29.7101C17.7475 29.7101 17.3471 29.4302 17.2172 29.0001L15.9936 24.9849L14.768 29.0101C14.7231 29.1582 14.6469 29.2885 14.5473 29.3956C14.3589 29.5997 14.0903 29.7201 13.8081 29.7201V29.7101C13.7075 29.7101 13.6176 29.7001 13.518 29.67C12.9878 29.5101 12.688 28.9501 12.8579 28.42L14.5151 22.9801ZM12.0278 20.9801H5.86862L6.79733 12.89C6.83737 12.35 7.28756 11.9301 7.8276 11.9301H10.8374L17.2778 12.8101C17.478 12.8401 17.6079 13.0101 17.6079 13.2101C17.602 13.3167 17.5512 13.4119 17.4751 13.4775C17.4077 13.5352 17.3208 13.5701 17.228 13.5701H12.018C11.728 13.5701 11.4477 13.7001 11.2573 13.92C11.0678 14.15 10.978 14.4401 11.0278 14.7301L12.0278 20.9801Z" fill="#3291CF"/>
</svg>
