<svg width="34" height="34" viewBox="0 0 34 34" fill="none" xmlns="http://www.w3.org/2000/svg">
<path d="M16.87 17.125C15.92 16.175 14.6 15.585 13.15 15.585C10.24 15.585 7.89001 17.945 7.89001 20.845C7.89001 23.745 10.25 26.105 13.15 26.105C16.05 26.105 18.41 23.745 18.41 20.845" stroke="#3291CF" stroke-width="2" stroke-linecap="round" stroke-linejoin="round"/>
<path d="M21.26 12.735C19.18 10.655 16.31 9.375 13.15 9.375C6.81004 9.375 1.67004 14.515 1.67004 20.855C1.67004 27.195 6.81004 32.335 13.15 32.335C19.49 32.335 24.63 27.195 24.63 20.855C24.63 19.105 24.24 17.435 23.53 15.955" stroke="#3291CF" stroke-width="2" stroke-linecap="round" stroke-linejoin="round"/>
<path d="M13.15 20.8551L23.02 10.9751" stroke="#3291CF" stroke-width="2" stroke-linecap="round" stroke-linejoin="round"/>
<path d="M27.64 1.66504L23.02 6.28504V10.975H27.71L32.33 6.35504H27.64V1.66504Z" stroke="#3291CF" stroke-width="2" stroke-linecap="round" stroke-linejoin="round"/>
</svg>
